<svg xmlns="http://www.w3.org/2000/svg" width="24" height="24" viewBox="0 0 24 24"><path fill="currentColor" d="M12 15c-2.5 0 -3.25 0 -4 0c-0.55 0 -1 0 -1 0c0 0 1.5 0 5 0c3.5 0 5 0 5 0c0 0 -0.45 0 -1 0c-0.75 0 -1.5 0 -4 0Z"><animate fill="freeze" attributeName="d" begin="1.1s" dur="0.2s" values="M12 15c-2.5 0 -3.25 0 -4 0c-0.55 0 -1 0 -1 0c0 0 1.5 0 5 0c3.5 0 5 0 5 0c0 0 -0.45 0 -1 0c-0.75 0 -1.5 0 -4 0Z;M12 14c-2.5 0 -3.25 -1 -4 -1c-0.55 0 -1 0.45 -1 1c0 0.75 1.5 4 5 4c3.5 0 5 -3.25 5 -4c0 -0.55 -0.45 -1 -1 -1c-0.75 0 -1.5 1 -4 1Z"/></path><g fill="none" stroke="currentColor" stroke-linecap="round" stroke-linejoin="round" stroke-width="2"><path stroke-dasharray="64" stroke-dashoffset="64" d="M12 3c4.97 0 9 4.03 9 9c0 4.97 -4.03 9 -9 9c-4.97 0 -9 -4.03 -9 -9c0 -4.97 4.03 -9 9 -9"><animate fill="freeze" attributeName="stroke-dashoffset" dur="0.6s" values="64;0"/></path><path stroke-dasharray="2" stroke-dashoffset="2" d="M9 9v1"><animate fill="freeze" attributeName="stroke-dashoffset" begin="0.7s" dur="0.2s" values="2;0"/></path><path stroke-dasharray="2" stroke-dashoffset="2" d="M15 9v1"><animate fill="freeze" attributeName="stroke-dashoffset" begin="0.9s" dur="0.2s" values="2;0"/></path></g></svg>