<svg xmlns="http://www.w3.org/2000/svg" width="24" height="24" viewBox="0 0 24 24"><g fill="none" stroke="currentColor" stroke-linecap="round" stroke-linejoin="round" stroke-width="1.5" color="currentColor"><path d="M18 2v2M6 2v2m5.05 18c-4.03 0-6.046 0-7.298-1.354C2.5 19.293 2.5 17.114 2.5 12.756v-.513c0-4.357 0-6.536 1.252-7.89C5.004 3 7.02 3 11.05 3h1.9c4.03 0 6.046 0 7.298 1.354c1.179 1.274 1.248 3.28 1.252 7.146V13"/><path d="M13 17.5h8m-8 0c0 .7 1.994 2.009 2.5 2.5M13 17.5c0-.7 1.994-2.008 2.5-2.5M3 8h18"/></g></svg>